<svg width="100" height="100" viewBox="0 0 100 100" fill="none" xmlns="http://www.w3.org/2000/svg">
<circle cx="50" cy="50" r="48.5" fill="#E3EAFD" stroke="#7D97F4" stroke-width="3"/>
<path d="M34.9955 72V28.3636H50.9756C54.0722 28.3636 56.6361 28.875 58.6673 29.8977C60.6986 30.9062 62.2185 32.277 63.227 34.0099C64.2355 35.7287 64.7398 37.6676 64.7398 39.8267C64.7398 41.6449 64.406 43.179 63.7384 44.429C63.0707 45.6648 62.1759 46.6591 61.0537 47.4119C59.9457 48.1506 58.7241 48.6903 57.3889 49.0312V49.4574C58.8378 49.5284 60.2511 49.9972 61.629 50.8636C63.021 51.7159 64.1716 52.9304 65.0807 54.5071C65.9898 56.0838 66.4443 58.0014 66.4443 60.2599C66.4443 62.4901 65.9187 64.4929 64.8676 66.2685C63.8307 68.0298 62.2256 69.429 60.0523 70.4659C57.879 71.4886 55.102 72 51.7213 72H34.9955ZM41.5793 66.3537H51.0821C54.2355 66.3537 56.494 65.7429 57.8577 64.5213C59.2213 63.2997 59.9031 61.7727 59.9031 59.9403C59.9031 58.5625 59.5551 57.2983 58.8591 56.1477C58.1631 54.9972 57.1687 54.081 55.8761 53.3991C54.5977 52.7173 53.0778 52.3764 51.3165 52.3764H41.5793V66.3537ZM41.5793 47.2415H50.4003C51.8776 47.2415 53.2057 46.9574 54.3847 46.3892C55.5778 45.821 56.5224 45.0256 57.2185 44.0028C57.9287 42.9659 58.2838 41.7443 58.2838 40.3381C58.2838 38.5341 57.6517 37.0213 56.3875 35.7997C55.1233 34.5781 53.1844 33.9673 50.5707 33.9673H41.5793V47.2415Z" fill="white"/>
<path d="M34.9955 72V28.3636H50.9756C54.0722 28.3636 56.6361 28.875 58.6673 29.8977C60.6986 30.9062 62.2185 32.277 63.227 34.0099C64.2355 35.7287 64.7398 37.6676 64.7398 39.8267C64.7398 41.6449 64.406 43.179 63.7384 44.429C63.0707 45.6648 62.1759 46.6591 61.0537 47.4119C59.9457 48.1506 58.7241 48.6903 57.3889 49.0312V49.4574C58.8378 49.5284 60.2511 49.9972 61.629 50.8636C63.021 51.7159 64.1716 52.9304 65.0807 54.5071C65.9898 56.0838 66.4443 58.0014 66.4443 60.2599C66.4443 62.4901 65.9187 64.4929 64.8676 66.2685C63.8307 68.0298 62.2256 69.429 60.0523 70.4659C57.879 71.4886 55.102 72 51.7213 72H34.9955ZM41.5793 66.3537H51.0821C54.2355 66.3537 56.494 65.7429 57.8577 64.5213C59.2213 63.2997 59.9031 61.7727 59.9031 59.9403C59.9031 58.5625 59.5551 57.2983 58.8591 56.1477C58.1631 54.9972 57.1687 54.081 55.8761 53.3991C54.5977 52.7173 53.0778 52.3764 51.3165 52.3764H41.5793V66.3537ZM41.5793 47.2415H50.4003C51.8776 47.2415 53.2057 46.9574 54.3847 46.3892C55.5778 45.821 56.5224 45.0256 57.2185 44.0028C57.9287 42.9659 58.2838 41.7443 58.2838 40.3381C58.2838 38.5341 57.6517 37.0213 56.3875 35.7997C55.1233 34.5781 53.1844 33.9673 50.5707 33.9673H41.5793V47.2415Z" fill="#7D97F4"/>
</svg>
