<svg width="100" height="100" viewBox="0 0 100 100" fill="none" xmlns="http://www.w3.org/2000/svg">
<circle cx="50" cy="50" r="48.5" fill="#E3EAFD" stroke="#7D97F4" stroke-width="3"/>
<path d="M68.8067 42.554H62.159C61.9033 41.1335 61.4274 39.8835 60.7314 38.804C60.0354 37.7244 59.1831 36.8082 58.1746 36.0554C57.1661 35.3026 56.0368 34.7344 54.7868 34.3509C53.551 33.9673 52.2371 33.7756 50.8451 33.7756C48.3309 33.7756 46.0794 34.4077 44.0908 35.6719C42.1164 36.9361 40.5539 38.7898 39.4033 41.233C38.2669 43.6761 37.6988 46.6591 37.6988 50.1818C37.6988 53.733 38.2669 56.7301 39.4033 59.1733C40.5539 61.6165 42.1235 63.4631 44.1121 64.7131C46.1007 65.9631 48.338 66.5881 50.8238 66.5881C52.2016 66.5881 53.5084 66.4034 54.7442 66.0341C55.9942 65.6506 57.1235 65.0895 58.132 64.3509C59.1405 63.6122 59.9928 62.7102 60.6888 61.6449C61.399 60.5653 61.8891 59.3295 62.159 57.9375L68.8067 57.9588C68.4516 60.1037 67.7627 62.0781 66.7399 63.8821C65.7314 65.6719 64.4317 67.2202 62.8408 68.527C61.2641 69.8196 59.4601 70.821 57.4289 71.5312C55.3976 72.2415 53.1817 72.5966 50.7811 72.5966C47.0027 72.5966 43.6363 71.7017 40.6817 69.9119C37.7272 68.108 35.3976 65.5298 33.6931 62.1776C32.0027 58.8253 31.1576 54.8267 31.1576 50.1818C31.1576 45.5227 32.0098 41.5241 33.7144 38.1861C35.4189 34.8338 37.7485 32.2628 40.703 30.473C43.6576 28.669 47.0169 27.767 50.7811 27.767C53.0965 27.767 55.2556 28.1009 57.2584 28.7685C59.2755 29.4219 61.0865 30.3878 62.6917 31.6662C64.2968 32.9304 65.6249 34.4787 66.676 36.3111C67.7272 38.1293 68.4374 40.2102 68.8067 42.554Z" fill="white"/>
<path d="M68.8067 42.554H62.159C61.9033 41.1335 61.4274 39.8835 60.7314 38.804C60.0354 37.7244 59.1831 36.8082 58.1746 36.0554C57.1661 35.3026 56.0368 34.7344 54.7868 34.3509C53.551 33.9673 52.2371 33.7756 50.8451 33.7756C48.3309 33.7756 46.0794 34.4077 44.0908 35.6719C42.1164 36.9361 40.5539 38.7898 39.4033 41.233C38.2669 43.6761 37.6988 46.6591 37.6988 50.1818C37.6988 53.733 38.2669 56.7301 39.4033 59.1733C40.5539 61.6165 42.1235 63.4631 44.1121 64.7131C46.1007 65.9631 48.338 66.5881 50.8238 66.5881C52.2016 66.5881 53.5084 66.4034 54.7442 66.0341C55.9942 65.6506 57.1235 65.0895 58.132 64.3509C59.1405 63.6122 59.9928 62.7102 60.6888 61.6449C61.399 60.5653 61.8891 59.3295 62.159 57.9375L68.8067 57.9588C68.4516 60.1037 67.7627 62.0781 66.7399 63.8821C65.7314 65.6719 64.4317 67.2202 62.8408 68.527C61.2641 69.8196 59.4601 70.821 57.4289 71.5312C55.3976 72.2415 53.1817 72.5966 50.7811 72.5966C47.0027 72.5966 43.6363 71.7017 40.6817 69.9119C37.7272 68.108 35.3976 65.5298 33.6931 62.1776C32.0027 58.8253 31.1576 54.8267 31.1576 50.1818C31.1576 45.5227 32.0098 41.5241 33.7144 38.1861C35.4189 34.8338 37.7485 32.2628 40.703 30.473C43.6576 28.669 47.0169 27.767 50.7811 27.767C53.0965 27.767 55.2556 28.1009 57.2584 28.7685C59.2755 29.4219 61.0865 30.3878 62.6917 31.6662C64.2968 32.9304 65.6249 34.4787 66.676 36.3111C67.7272 38.1293 68.4374 40.2102 68.8067 42.554Z" fill="#7D97F4"/>
</svg>
